<svg width="26" height="27" viewBox="0 0 26 27" fill="none" xmlns="http://www.w3.org/2000/svg">
<path d="M0.431641 13.4238C0.431641 14.6543 1.42773 15.6504 2.6582 15.6504H10.7881V23.7803C10.7881 24.9961 11.7695 26.0068 13 26.0068C14.2305 26.0068 15.2266 24.9961 15.2266 23.7803V15.6504H23.3564C24.5723 15.6504 25.5684 14.6543 25.5684 13.4238C25.5684 12.208 24.5723 11.2119 23.3564 11.2119H15.2266V3.08203C15.2266 1.86621 14.2305 0.855469 13 0.855469C11.7695 0.855469 10.7881 1.86621 10.7881 3.08203V11.2119H2.6582C1.42773 11.2119 0.431641 12.208 0.431641 13.4238Z" fill="white"/>
</svg>
