<svg width="23" height="26" viewBox="0 0 23 26" fill="none" xmlns="http://www.w3.org/2000/svg">
<path d="M4.65723 2.42676H18.3535C18.2676 1.39551 17.623 0.826172 16.5273 0.826172H6.4834C5.3877 0.826172 4.74316 1.39551 4.65723 2.42676ZM2.50879 5.74609H20.502C20.3623 4.65039 19.7607 4.00586 18.5039 4.00586H4.49609C3.23926 4.00586 2.64844 4.65039 2.50879 5.74609ZM3.88379 25.6514H19.1162C21.4902 25.6514 22.7793 24.3623 22.7793 22.0098V11.1602C22.7793 8.81836 21.4902 7.5293 19.1162 7.5293H3.88379C1.50977 7.5293 0.220703 8.81836 0.220703 11.1602V22.0098C0.220703 24.3623 1.50977 25.6514 3.88379 25.6514Z" fill="white"/>
</svg>
