<svg width="20" height="16" viewBox="0 0 20 16" fill="none" xmlns="http://www.w3.org/2000/svg">
<path d="M0.927734 7.94922C0.927734 8.19336 1.03516 8.41797 1.23047 8.60352L7.71484 15.0781C7.91016 15.2637 8.11523 15.3516 8.34961 15.3516C8.82812 15.3516 9.20898 15 9.20898 14.5117C9.20898 14.2773 9.12109 14.043 8.96484 13.8965L6.77734 11.6699L3.48633 8.67188L5.84961 8.81836H18.2031C18.7109 8.81836 19.0625 8.45703 19.0625 7.94922C19.0625 7.44141 18.7109 7.08008 18.2031 7.08008H5.84961L3.49609 7.22656L6.77734 4.22852L8.96484 2.00195C9.12109 1.8457 9.20898 1.62109 9.20898 1.38672C9.20898 0.898438 8.82812 0.546875 8.34961 0.546875C8.11523 0.546875 7.91016 0.625 7.69531 0.839844L1.23047 7.29492C1.03516 7.48047 0.927734 7.70508 0.927734 7.94922Z" fill="white"/>
</svg>
