<svg width="23" height="24" viewBox="0 0 23 24" fill="none" xmlns="http://www.w3.org/2000/svg">
<path d="M11.5 23.5986C17.7305 23.5986 22.8438 18.4746 22.8438 12.2441C22.8438 6.02441 17.7197 0.900391 11.5 0.900391C5.26953 0.900391 0.15625 6.02441 0.15625 12.2441C0.15625 18.4746 5.28027 23.5986 11.5 23.5986ZM11.5107 6.37891C12.2412 6.37891 12.7998 6.87305 12.7998 7.58203V12.3516L12.6602 14.5859L13.498 13.4365L14.626 12.2119C14.8193 11.9756 15.1309 11.8359 15.4531 11.8359C16.1084 11.8359 16.5703 12.2871 16.5703 12.9209C16.5703 13.2539 16.4736 13.501 16.2266 13.7695L12.5635 17.583C12.2627 17.9053 11.9297 18.0664 11.5107 18.0664C11.0918 18.0664 10.7695 17.916 10.4688 17.583L6.79492 13.7695C6.54785 13.501 6.45117 13.2539 6.45117 12.9209C6.45117 12.2871 6.91309 11.8359 7.56836 11.8359C7.89062 11.8359 8.20215 11.9756 8.39551 12.2119L9.53418 13.4688L10.3506 14.5752L10.2217 12.3516V7.58203C10.2217 6.87305 10.7803 6.37891 11.5107 6.37891Z" fill="white"/>
</svg>
