<svg width="21" height="11" viewBox="0 0 21 11" fill="none" xmlns="http://www.w3.org/2000/svg">
<path d="M1.34961 2.44336H19.6309C20.041 2.44336 20.373 2.12109 20.373 1.71094C20.373 1.30078 20.041 0.96875 19.6309 0.96875H1.34961C0.939453 0.96875 0.617188 1.30078 0.617188 1.71094C0.617188 2.12109 0.939453 2.44336 1.34961 2.44336ZM1.34961 6.70117H19.6309C20.041 6.70117 20.373 6.37891 20.373 5.96875C20.373 5.54883 20.041 5.2168 19.6309 5.2168H1.34961C0.939453 5.2168 0.617188 5.54883 0.617188 5.96875C0.617188 6.37891 0.939453 6.70117 1.34961 6.70117ZM1.34961 10.9688H19.6309C20.041 10.9688 20.373 10.6367 20.373 10.2168C20.373 9.80664 20.041 9.48438 19.6309 9.48438H1.34961C0.939453 9.48438 0.617188 9.80664 0.617188 10.2168C0.617188 10.6367 0.939453 10.9688 1.34961 10.9688Z" fill="white"/>
</svg>
