<svg width="29" height="25" viewBox="0 0 29 25" fill="none" xmlns="http://www.w3.org/2000/svg">
<path d="M0.878906 11.7617C0.878906 12.5137 1.42676 13.083 2.28613 13.083C2.68359 13.083 3.07031 12.8896 3.39258 12.6104L13.9199 3.79102C14.2959 3.45801 14.7148 3.45801 15.1123 3.79102L25.6182 12.6104C25.9404 12.8896 26.3271 13.083 26.7139 13.083C27.541 13.083 28.1211 12.5674 28.1211 11.7725C28.1211 11.3428 27.9277 10.9346 27.5625 10.6338L24.5332 8.07715V3.38281C24.5332 2.87793 24.2002 2.55566 23.7061 2.55566H21.7295C21.2246 2.55566 20.8916 2.87793 20.8916 3.38281V5.02637L16.3906 1.24512C15.252 0.289062 13.7695 0.289062 12.6309 1.24512L1.4375 10.6445C1.07227 10.9453 0.878906 11.3643 0.878906 11.7617ZM4.57422 21.5371C4.57422 23.1699 5.65918 24.1904 7.37793 24.1904H21.6221C23.3408 24.1904 24.4258 23.1699 24.4258 21.5371V13.9209L15.1982 6.17578C14.7578 5.7998 14.2422 5.81055 13.8125 6.17578L4.57422 13.9209V21.5371ZM17.3896 21.2256H11.5996V14.6729C11.5996 14.1572 11.9434 13.8242 12.459 13.8242H16.5518C17.0674 13.8242 17.3896 14.1572 17.3896 14.6729V21.2256Z" fill="white"/>
</svg>
