<svg width="30" height="24" viewBox="0 0 30 24" fill="none" xmlns="http://www.w3.org/2000/svg">
<path d="M4.24707 19.2041H25.7529C27.9014 19.2041 29.0723 18.0547 29.0723 15.8848V3.38086C29.0723 1.21094 27.9014 0.0615234 25.7529 0.0615234H4.24707C2.09863 0.0615234 0.927734 1.21094 0.927734 3.38086V15.8848C0.927734 18.0547 2.09863 19.2041 4.24707 19.2041ZM11.1221 14.2305V5.06738C11.1221 4.42285 11.8203 4.12207 12.3682 4.44434L20.0059 8.91309C20.5752 9.24609 20.5967 10.041 20.0166 10.374L12.3682 14.8213C11.8203 15.1436 11.1221 14.8535 11.1221 14.2305ZM9.33887 23.168H20.6611C21.3057 23.168 21.8213 22.6309 21.8213 22.0186C21.8213 21.3955 21.3057 20.8584 20.6611 20.8584H9.33887C8.69434 20.8584 8.17871 21.3955 8.17871 22.0186C8.17871 22.6309 8.69434 23.168 9.33887 23.168Z" fill="white"/>
</svg>
